<svg version="1.1" id="Layer_1" xmlns="http://www.w3.org/2000/svg" xmlns:xlink="http://www.w3.org/1999/xlink" x="0px" y="0px"
	 width="100%" viewBox="0 0 496 496" enable-background="new 0 0 496 496" xml:space="preserve">
<path fill="#000000" opacity="1.000000" stroke="none" 
	d="
M278.265167,260.695923 
	C282.403259,264.840363 286.228394,268.794464 290.202362,272.592834 
	C292.352783,274.648193 292.425476,276.323059 290.253906,278.433350 
	C285.474548,283.077911 280.802338,287.834808 276.155701,292.613312 
	C270.539215,298.389221 271.659607,302.681183 278.982880,305.538818 
	C306.750244,316.373901 325.049286,335.921173 328.958984,365.810211 
	C333.576904,401.113617 316.545929,427.436646 288.605042,442.309937 
	C247.708908,464.079529 196.450516,446.692535 177.931854,404.255951 
	C164.942032,374.488983 173.342453,337.235138 203.230072,315.940308 
	C209.512207,311.464325 216.136063,307.569641 223.510223,305.321075 
	C227.766708,304.023163 229.091629,301.810883 229.077805,297.426880 
	C228.939575,253.599884 229.010239,209.772263 229.019104,165.944809 
	C229.025192,135.782166 228.995834,105.619461 229.044754,75.456894 
	C229.065796,62.489769 234.161118,54.752327 244.561325,51.534653 
	C257.852081,47.422680 271.047546,56.059074 272.431641,69.890694 
	C273.678864,82.354439 272.846252,94.863235 272.904938,107.349434 
	C272.923523,111.305779 273.834290,114.357201 276.861206,117.032799 
	C280.474884,120.227127 283.645233,123.918022 287.184814,127.202919 
	C289.609863,129.453506 289.447021,131.299225 287.140991,133.430542 
	C284.940125,135.464661 283.162720,138.075745 280.713104,139.700287 
	C272.393372,145.217865 272.476227,153.376709 273.085724,161.863861 
	C273.259827,164.288086 274.755157,165.760025 276.285034,167.299545 
	C285.447052,176.519196 294.464081,185.889679 303.838562,194.887848 
	C307.367767,198.275375 307.859222,200.331955 303.971558,203.970505 
	C294.364838,212.961609 285.319580,222.549850 275.863678,231.707062 
	C273.723694,233.779449 272.867371,235.868546 272.995789,238.708527 
	C273.138672,241.868347 273.284637,245.064346 272.976135,248.200012 
	C272.477844,253.265182 273.883423,257.368073 278.265167,260.695923 
M290.839417,378.649475 
	C291.669098,378.652252 292.501312,378.698792 293.328064,378.650726 
	C299.464569,378.294220 304.686218,374.305756 306.331268,368.741058 
	C308.225189,362.334534 306.094727,356.010254 300.833832,352.422028 
	C296.035278,349.149048 288.225861,349.396698 283.546448,352.916779 
	C278.531189,356.689514 277.421478,362.009033 278.539734,367.616364 
	C279.747223,373.670990 283.903107,377.343201 290.839417,378.649475 
z"/>
</svg>